<svg width="154" height="154" viewBox="0 0 154 154" fill="none" xmlns="http://www.w3.org/2000/svg">
<path d="M86.625 57.75C84.0723 57.75 81.6241 56.7359 79.8191 54.9309C78.0141 53.1259 77 50.6777 77 48.125C77 45.5723 78.0141 43.1241 79.8191 41.3191C81.6241 39.5141 84.0723 38.5 86.625 38.5C89.1777 38.5 91.6259 39.5141 93.4309 41.3191C95.2359 43.1241 96.25 45.5723 96.25 48.125C96.25 50.6777 95.2359 53.1259 93.4309 54.9309C91.6259 56.7359 89.1777 57.75 86.625 57.75Z" fill="#FFD8D6"/>
<path d="M121.917 12.8333H32.0834C26.9826 12.8485 22.0952 14.8816 18.4884 18.4883C14.8816 22.0951 12.8486 26.9826 12.8334 32.0833V88.935L37.73 64.0383C41.3985 60.5467 46.269 58.5994 51.3334 58.5994C56.3978 58.5994 61.2683 60.5467 64.9367 64.0383L83.359 82.5632L89.057 76.8652C92.6735 73.2689 97.5664 71.2502 102.667 71.2502C107.767 71.2502 112.66 73.2689 116.276 76.8652L141.167 101.768V32.0833C141.151 26.9826 139.118 22.0951 135.512 18.4883C131.905 14.8816 127.017 12.8485 121.917 12.8333V12.8333ZM86.625 57.75C84.0723 57.75 81.6242 56.7359 79.8191 54.9309C78.0141 53.1258 77 50.6777 77 48.125C77 45.5723 78.0141 43.1241 79.8191 41.3191C81.6242 39.514 84.0723 38.5 86.625 38.5C89.1777 38.5 91.6259 39.514 93.4309 41.3191C95.236 43.1241 96.25 45.5723 96.25 48.125C96.25 50.6777 95.236 53.1258 93.4309 54.9309C91.6259 56.7359 89.1777 57.75 86.625 57.75Z" fill="#FFB6B0"/>
<path d="M64.9367 64.0383C61.2683 60.5468 56.3978 58.5994 51.3334 58.5994C46.269 58.5994 41.3985 60.5468 37.73 64.0383L12.8334 88.935V121.917C12.8486 127.017 14.8816 131.905 18.4884 135.512C22.0952 139.118 26.9826 141.151 32.0834 141.167H121.917C127.146 141.167 132.151 139.03 135.777 135.263L64.9367 64.0383Z" fill="#FF5E51"/>
<path d="M141.167 101.755L116.276 76.8652C112.66 73.2689 107.767 71.2502 102.667 71.2502C97.5664 71.2502 92.6734 73.2689 89.0569 76.8652L83.3589 82.5632L135.751 135.238C139.229 131.676 141.173 126.896 141.167 121.917V101.755Z" fill="#FFD8D6"/>
</svg>
