<svg width="138" height="36" viewBox="0 0 138 36" fill="none" xmlns="http://www.w3.org/2000/svg">
<path d="M11.3078 32.6547L8.05536 27.0213L12.8285 18.7767L15.8616 24.0306L33.7668 24.021L28.6861 32.7325L11.3078 32.6547Z" fill="#D8D8FF"/>
<path d="M36.9641 18.4272L33.7117 24.0605L24.1851 24.0493L27.2185 18.7955L18.2576 3.29395L28.3423 3.3382L36.9641 18.4272Z" fill="#B2B1FF"/>
<path d="M11.8091 3.26395H18.314L23.0675 11.52L17.0008 11.5197L8.05663 27.0309L3.05255 18.2752L11.8091 3.26395Z" fill="#5856FF"/>
<path fill-rule="evenodd" clip-rule="evenodd" d="M19.107 1.95961L19.0876 1.92596H11.0406L1.50757 18.2684L8.05151 29.7184L8.05954 29.7045L10.5334 33.9894L29.4528 34.074L36.0969 22.6817H36.0527L38.5071 18.4306L29.1207 2.00354L19.107 1.95961ZM25.3318 12.858H25.382L20.6517 4.64252L27.5638 4.67283L35.421 18.4237L32.9617 22.6835L26.5167 22.6869L28.7638 18.795L25.3318 12.858ZM17.4683 4.60202L20.6937 10.1818L16.2279 10.1817L8.58238 23.4406L8.06086 24.3415L4.59773 18.282L12.5777 4.60202H17.4683ZM14.3672 18.7656L17.7738 12.8578L22.2408 12.858L25.6732 18.7958L23.4256 22.6886L16.6341 22.6923L14.3672 18.7656ZM9.6036 27.0267L10.8996 24.7792L12.8269 21.4501L15.0894 25.3692L21.8799 25.3655L21.8689 25.3845L31.4161 25.3958L27.9196 31.3911L12.0824 31.3202L9.6036 27.0267Z" fill="#333237"/>
<path d="M59.6 11.1V25H57.32V18.92H50.78V25H48.5V11.1H50.78V17.06H57.32V11.1H59.6ZM67.3816 25.18C66.3416 25.18 65.4016 24.9467 64.5616 24.48C63.7216 24 63.0616 23.3333 62.5816 22.48C62.1016 21.6133 61.8616 20.6133 61.8616 19.48C61.8616 18.36 62.1082 17.3667 62.6016 16.5C63.0949 15.6333 63.7682 14.9667 64.6216 14.5C65.4749 14.0333 66.4282 13.8 67.4816 13.8C68.5349 13.8 69.4882 14.0333 70.3416 14.5C71.1949 14.9667 71.8682 15.6333 72.3616 16.5C72.8549 17.3667 73.1016 18.36 73.1016 19.48C73.1016 20.6 72.8482 21.5933 72.3416 22.46C71.8349 23.3267 71.1416 24 70.2616 24.48C69.3949 24.9467 68.4349 25.18 67.3816 25.18ZM67.3816 23.2C67.9682 23.2 68.5149 23.06 69.0216 22.78C69.5416 22.5 69.9616 22.08 70.2816 21.52C70.6016 20.96 70.7616 20.28 70.7616 19.48C70.7616 18.68 70.6082 18.0067 70.3016 17.46C69.9949 16.9 69.5882 16.48 69.0816 16.2C68.5749 15.92 68.0282 15.78 67.4416 15.78C66.8549 15.78 66.3082 15.92 65.8016 16.2C65.3082 16.48 64.9149 16.9 64.6216 17.46C64.3282 18.0067 64.1816 18.68 64.1816 19.48C64.1816 20.6667 64.4816 21.5867 65.0816 22.24C65.6949 22.88 66.4616 23.2 67.3816 23.2ZM77.6355 15.58C77.9688 15.02 78.4088 14.5867 78.9555 14.28C79.5155 13.96 80.1755 13.8 80.9355 13.8V16.16H80.3555C79.4621 16.16 78.7821 16.3867 78.3155 16.84C77.8621 17.2933 77.6355 18.08 77.6355 19.2V25H75.3555V13.98H77.6355V15.58ZM84.1913 12.52C83.7779 12.52 83.4313 12.38 83.1513 12.1C82.8713 11.82 82.7313 11.4733 82.7313 11.06C82.7313 10.6467 82.8713 10.3 83.1513 10.02C83.4313 9.74 83.7779 9.6 84.1913 9.6C84.5913 9.6 84.9313 9.74 85.2113 10.02C85.4913 10.3 85.6313 10.6467 85.6313 11.06C85.6313 11.4733 85.4913 11.82 85.2113 12.1C84.9313 12.38 84.5913 12.52 84.1913 12.52ZM85.3113 13.98V25H83.0313V13.98H85.3113ZM90.3247 23.14H95.3247V25H87.6847V23.14L92.7047 15.84H87.6847V13.98H95.3247V15.84L90.3247 23.14ZM102.499 25.18C101.459 25.18 100.519 24.9467 99.6788 24.48C98.8388 24 98.1788 23.3333 97.6988 22.48C97.2188 21.6133 96.9788 20.6133 96.9788 19.48C96.9788 18.36 97.2254 17.3667 97.7188 16.5C98.2121 15.6333 98.8854 14.9667 99.7388 14.5C100.592 14.0333 101.545 13.8 102.599 13.8C103.652 13.8 104.605 14.0333 105.459 14.5C106.312 14.9667 106.985 15.6333 107.479 16.5C107.972 17.3667 108.219 18.36 108.219 19.48C108.219 20.6 107.965 21.5933 107.459 22.46C106.952 23.3267 106.259 24 105.379 24.48C104.512 24.9467 103.552 25.18 102.499 25.18ZM102.499 23.2C103.085 23.2 103.632 23.06 104.139 22.78C104.659 22.5 105.079 22.08 105.399 21.52C105.719 20.96 105.879 20.28 105.879 19.48C105.879 18.68 105.725 18.0067 105.419 17.46C105.112 16.9 104.705 16.48 104.199 16.2C103.692 15.92 103.145 15.78 102.559 15.78C101.972 15.78 101.425 15.92 100.919 16.2C100.425 16.48 100.032 16.9 99.7388 17.46C99.4454 18.0067 99.2988 18.68 99.2988 19.48C99.2988 20.6667 99.5988 21.5867 100.199 22.24C100.812 22.88 101.579 23.2 102.499 23.2ZM116.033 13.8C116.899 13.8 117.673 13.98 118.353 14.34C119.046 14.7 119.586 15.2333 119.973 15.94C120.359 16.6467 120.553 17.5 120.553 18.5V25H118.293V18.84C118.293 17.8533 118.046 17.1 117.553 16.58C117.059 16.0467 116.386 15.78 115.533 15.78C114.679 15.78 113.999 16.0467 113.493 16.58C112.999 17.1 112.753 17.8533 112.753 18.84V25H110.473V13.98H112.753V15.24C113.126 14.7867 113.599 14.4333 114.173 14.18C114.759 13.9267 115.379 13.8 116.033 13.8Z" fill="#333237"/>
</svg>
