<svg width="170" height="150" viewBox="0 0 170 150" fill="none" xmlns="http://www.w3.org/2000/svg">
<path d="M45.0287 143.378L30.0848 117.093L52.0157 78.6245L65.9518 103.139L148.22 103.094L124.876 143.741L45.0287 143.378Z" fill="#D8D8FF"/>
<path d="M162.91 76.9933L147.967 103.278L104.195 103.225L118.133 78.7117L76.9605 6.38281L123.296 6.58928L162.91 76.9933Z" fill="#B2B1FF"/>
<path d="M47.332 6.24243H77.2197L99.0604 44.7645L71.186 44.7631L30.0907 117.137L7.09869 76.2836L47.332 6.24243Z" fill="#5856FF"/>
<path fill-rule="evenodd" clip-rule="evenodd" d="M80.8633 0.157008L80.7742 0H43.801L0 76.2524L30.0671 129.677L30.104 129.612L41.4706 149.605L128.399 150L158.926 96.8445H158.723L170 77.0092L126.873 0.361982L80.8633 0.157008ZM109.464 51.008H109.695L87.9607 12.6752L119.719 12.8167L155.82 76.977L144.521 96.8529L114.908 96.8688L125.233 78.7095L109.464 51.008ZM73.3341 12.4863L88.1537 38.521L67.6349 38.5206L32.5063 100.385L30.1101 104.589L14.1982 76.3159L50.8635 12.4863H73.3341ZM59.0856 78.5723L74.7377 51.007L95.262 51.008L111.033 78.7132L100.706 96.8767L69.5012 96.894L59.0856 78.5723ZM37.1984 117.118L43.1532 106.631L52.0084 91.098L62.4039 109.384L93.6038 109.367L93.5533 109.456L137.419 109.508L121.354 137.482L48.5877 137.151L37.1984 117.118Z" fill="#333237"/>
</svg>
