<svg width="200" height="200" viewBox="0 0 200 200" fill="none" xmlns="http://www.w3.org/2000/svg">
<path d="M150 25H25C20.0271 25 15.258 26.9754 11.7417 30.4917C8.22539 34.0081 6.24995 38.7772 6.24995 43.75V131.25C6.23725 133.953 6.83549 136.623 7.99995 139.062C8.44228 139.992 9.1073 140.798 9.93595 141.408C10.7646 142.019 11.7312 142.415 12.75 142.562H13.625C14.5124 142.561 15.3894 142.371 16.1976 142.005C17.0058 141.638 17.7268 141.104 18.3125 140.437L62.0625 90.875L86.25 121.063C86.7758 121.714 87.4271 122.253 88.1652 122.647C88.9033 123.042 89.7132 123.285 90.5467 123.36C91.3803 123.436 92.2206 123.344 93.0178 123.089C93.815 122.833 94.5528 122.421 95.1874 121.875L118.75 102L139.625 119.875C140.514 120.641 141.602 121.141 142.762 121.318C143.923 121.495 145.11 121.342 146.187 120.875C150.894 118.777 156.141 118.209 161.187 119.25C162.106 119.438 163.055 119.416 163.964 119.187C164.874 118.959 165.72 118.528 166.44 117.928C167.16 117.328 167.736 116.573 168.125 115.72C168.514 114.867 168.706 113.937 168.687 113V43.75C168.687 38.788 166.721 34.0283 163.218 30.5138C159.715 26.9993 154.962 25.0165 150 25Z" fill="#B2B1FF"/>
<path d="M147.75 110.375L122.75 89C121.618 88.0317 120.177 87.4996 118.688 87.4996C117.198 87.4996 115.757 88.0317 114.625 89L92.0626 108.312L67.0626 77.0625C66.4853 76.4228 65.782 75.9093 64.9969 75.5544C64.2117 75.1994 63.3616 75.0107 62.5001 75C61.5916 74.9831 60.6905 75.1645 59.8593 75.5315C59.0282 75.8985 58.287 76.4423 57.6876 77.125L8.93756 132.25C8.147 133.151 7.63239 134.261 7.45508 135.447C7.27777 136.633 7.44526 137.844 7.93756 138.937C9.41633 142.227 11.8125 145.021 14.8389 146.983C17.8652 148.945 21.3933 149.992 25.0001 150H125C126.658 150 128.247 149.341 129.419 148.169C130.592 146.997 131.25 145.408 131.25 143.75C131.247 140.466 131.892 137.214 133.147 134.179C134.401 131.144 136.242 128.386 138.563 126.062C140.75 123.863 143.338 122.102 146.188 120.875C147.167 120.459 148.024 119.801 148.678 118.961C149.332 118.121 149.76 117.129 149.923 116.077C150.086 115.026 149.977 113.95 149.608 112.952C149.239 111.954 148.621 111.067 147.813 110.375H147.75Z" fill="#6563FF"/>
<path d="M156.25 181.25C148.833 181.256 141.58 179.062 135.41 174.946C129.239 170.829 124.428 164.976 121.585 158.125C118.742 151.274 117.994 143.734 119.436 136.459C120.878 129.183 124.446 122.498 129.687 117.25C133.17 113.763 137.306 110.997 141.858 109.11C146.411 107.223 151.291 106.252 156.219 106.252C161.147 106.252 166.027 107.223 170.579 109.11C175.131 110.997 179.267 113.763 182.75 117.25C186.237 120.733 189.003 124.869 190.89 129.421C192.777 133.973 193.748 138.853 193.748 143.781C193.748 148.709 192.777 153.589 190.89 158.142C189.003 162.694 186.237 166.83 182.75 170.313C175.714 177.324 166.183 181.258 156.25 181.25ZM156.25 118.75C149.639 118.761 143.302 121.391 138.625 126.063C136.291 128.385 134.439 131.147 133.176 134.187C131.912 137.228 131.261 140.488 131.261 143.781C131.261 147.074 131.912 150.334 133.176 153.375C134.439 156.416 136.291 159.177 138.625 161.5C143.324 166.191 149.695 168.823 156.335 168.817C162.975 168.811 169.34 166.168 174.031 161.469C178.722 156.769 181.354 150.399 181.348 143.759C181.343 137.119 178.699 130.754 174 126.063C170.596 122.621 166.244 120.271 161.5 119.313C159.775 118.94 158.015 118.752 156.25 118.75Z" fill="#B2B1FF"/>
<path d="M134.125 172.125C132.884 172.132 131.668 171.77 130.634 171.083C129.599 170.397 128.792 169.418 128.316 168.272C127.84 167.125 127.717 165.863 127.961 164.646C128.205 163.429 128.806 162.312 129.687 161.437L173.875 117.25C175.071 116.226 176.609 115.691 178.182 115.752C179.755 115.813 181.247 116.465 182.36 117.578C183.473 118.691 184.125 120.183 184.186 121.756C184.246 123.329 183.711 124.867 182.687 126.062L138.5 170.25C137.346 171.428 135.774 172.102 134.125 172.125Z" fill="#B2B1FF"/>
<path d="M100 75C106.904 75 112.5 69.4036 112.5 62.5C112.5 55.5964 106.904 50 100 50C93.0964 50 87.5 55.5964 87.5 62.5C87.5 69.4036 93.0964 75 100 75Z" fill="white"/>
</svg>
